<svg width="25" height="26" viewBox="0 0 25 26" fill="none" xmlns="http://www.w3.org/2000/svg">
<path d="M18.2272 15.4931C17.9163 15.3372 16.3872 14.5857 16.1025 14.481C15.8168 14.3774 15.6095 14.3261 15.4012 14.638C15.1951 14.9489 14.5985 15.6491 14.4174 15.8563C14.2363 16.0646 14.0542 16.0897 13.7434 15.9348C13.4325 15.7778 12.4298 15.4502 11.2419 14.391C10.3177 13.5663 9.69289 12.5479 9.51182 12.236C9.33076 11.9251 9.49299 11.7566 9.64789 11.6017C9.78814 11.4625 9.95978 11.2385 10.1147 11.0575C10.2706 10.8754 10.3219 10.7456 10.4266 10.5373C10.5302 10.3301 10.4789 10.149 10.4004 9.99304C10.3219 9.83709 9.70022 8.30586 9.4417 7.68312C9.18841 7.07711 8.93199 7.1598 8.7415 7.14933C8.54274 7.14141 8.34383 7.13792 8.14492 7.13886C7.93769 7.13886 7.60067 7.21632 7.31598 7.52821C7.0313 7.83906 6.22748 8.5916 6.22748 10.1228C6.22748 11.653 7.34215 13.1319 7.49705 13.3402C7.653 13.5474 9.6908 16.6894 12.8108 18.0364C13.5529 18.3567 14.1317 18.5482 14.5838 18.6906C15.329 18.9282 16.0072 18.8947 16.5421 18.8141C17.1397 18.7251 18.3821 18.0616 18.6416 17.3352C18.9012 16.6088 18.9012 15.9861 18.8227 15.8563C18.7452 15.7265 18.538 15.6491 18.2261 15.4931M12.5523 23.2414H12.5481C10.6953 23.2415 8.8766 22.7434 7.28249 21.7991L6.90466 21.5751L2.98919 22.6029L4.03373 18.7848L3.78777 18.3933C2.75207 16.7441 2.20415 14.8355 2.20735 12.888C2.2084 7.18387 6.85023 2.54309 12.5565 2.54309C15.3196 2.54309 17.9174 3.62112 19.8704 5.57624C20.834 6.5356 21.5978 7.67655 22.1175 8.93305C22.6373 10.1896 22.9026 11.5367 22.8983 12.8964C22.8952 18.6006 18.2544 23.2414 12.5523 23.2414ZM21.3576 4.09106C20.2045 2.93026 18.8324 2.00987 17.3209 1.38321C15.8094 0.756547 14.1885 0.436087 12.5523 0.440396C5.6916 0.440396 0.107803 6.0242 0.104664 12.887C0.104664 15.0807 0.677173 17.2222 1.76672 19.1092L0 25.5597L6.59904 23.8285C8.42394 24.8227 10.4689 25.3438 12.5471 25.344H12.5523C19.412 25.344 24.9968 19.7602 24.9999 12.8964C25.005 11.2608 24.6857 9.64043 24.0605 8.12902C23.4353 6.61761 22.5167 5.24516 21.3576 4.09106Z" fill="white"/>
</svg>
