<svg width="29" height="16" viewBox="0 0 29 16" fill="none" xmlns="http://www.w3.org/2000/svg">
<path d="M25.2847 11.1535C25.2847 11.1535 27.5198 13.345 28.0727 14.3591C28.0835 14.3737 28.0919 14.3899 28.0976 14.4071C28.3229 14.7817 28.3782 15.0754 28.2676 15.2922C28.081 15.6504 27.4493 15.8301 27.2351 15.8452H23.2845C23.0094 15.8452 22.4372 15.7739 21.7405 15.2963C21.2083 14.9272 20.6789 14.3193 20.1661 13.7251C19.4003 12.8427 18.7382 12.077 18.0678 12.077C17.9831 12.0768 17.899 12.0907 17.819 12.1182C17.3117 12.2774 16.6675 12.995 16.6675 14.9066C16.6675 15.5049 16.192 15.8452 15.8589 15.8452H14.0495C13.433 15.8452 10.2233 15.6312 7.37723 12.652C3.88973 9.0045 0.757482 1.68759 0.727072 1.62309C0.53217 1.14966 0.941325 0.891676 1.38366 0.891676H5.37292C5.90786 0.891676 6.08203 1.21279 6.20367 1.50096C6.34466 1.83168 6.86716 3.15454 7.72418 4.6407C9.11199 7.05863 9.96486 8.04255 10.6463 8.04255C10.7744 8.04292 10.9002 8.00979 11.0112 7.94649C11.9014 7.46071 11.7356 4.3045 11.6941 3.65404C11.6941 3.5278 11.6927 2.24473 11.2366 1.62447C10.9103 1.17985 10.3547 1.00695 10.0188 0.943822C10.1086 0.814829 10.2994 0.617223 10.544 0.50058C11.1536 0.198682 12.2553 0.15477 13.3487 0.15477H13.9555C15.1415 0.171237 15.4484 0.246711 15.8796 0.35512C16.7477 0.56096 16.7643 1.11947 16.6883 3.02143C16.6662 3.56485 16.6427 4.17688 16.6427 4.89732C16.6427 5.05101 16.6357 5.22254 16.6357 5.39682C16.6095 6.3725 16.5749 7.47169 17.2688 7.92316C17.3588 7.97882 17.4628 8.00829 17.5688 8.00824C17.8093 8.00824 18.5295 8.00824 20.4826 4.6805C21.3396 3.2108 22.0031 1.47763 22.0488 1.34727C22.0875 1.27454 22.2036 1.07007 22.3446 0.987734C22.4449 0.934758 22.5572 0.908295 22.6708 0.910888H27.3636C27.8751 0.910888 28.222 0.987735 28.2898 1.17985C28.4031 1.49136 28.2676 2.44233 26.1251 5.3186C25.7643 5.79752 25.4478 6.21195 25.1699 6.57422C23.2278 9.10468 23.2278 9.2323 25.2847 11.1535V11.1535Z" fill="white"/>
</svg>
